<svg width="21" height="21" viewBox="0 0 21 21" fill="none" xmlns="http://www.w3.org/2000/svg">
<path d="M10.3797 21C15.9795 21 20.5191 16.299 20.5191 10.5C20.5191 4.70101 15.9795 0 10.3797 0C4.77981 0 0.240234 4.70101 0.240234 10.5C0.240234 16.299 4.77981 21 10.3797 21Z" fill="#1590D8"/>
<path d="M15.0076 8.4717C15.0146 8.57253 15.0146 8.67339 15.0146 8.77422C15.0146 11.8497 12.7541 15.3934 8.62268 15.3934C7.34985 15.3934 6.16746 15.0117 5.17285 14.3491C5.3537 14.3707 5.52756 14.3779 5.71536 14.3779C6.76559 14.3779 7.73239 14.0105 8.50443 13.3839C7.51678 13.3623 6.6891 12.6925 6.40393 11.7705C6.54304 11.7921 6.68214 11.8065 6.82822 11.8065C7.02991 11.8065 7.23163 11.7777 7.41941 11.7273C6.39003 11.5112 5.61797 10.5749 5.61797 9.44406V9.41526C5.91704 9.58813 6.26483 9.69616 6.63343 9.71055C6.02832 9.29279 5.63189 8.57974 5.63189 7.77304C5.63189 7.34089 5.74315 6.94474 5.93791 6.59902C7.04381 8.01073 8.70613 8.93265 10.5701 9.0335C10.5354 8.86064 10.5145 8.68059 10.5145 8.50052C10.5145 7.21844 11.5161 6.17407 12.761 6.17407C13.4079 6.17407 13.9921 6.45497 14.4025 6.90874C14.9102 6.80791 15.3971 6.61343 15.8283 6.34694C15.6614 6.88715 15.3067 7.34091 14.8407 7.629C15.2928 7.5786 15.731 7.44893 16.1344 7.26888C15.8284 7.72983 15.4458 8.14036 15.0076 8.4717Z" fill="white"/>
<mask id="mask0" mask-type="alpha" maskUnits="userSpaceOnUse" x="5" y="6" width="12" height="10">
<path d="M15.0076 8.4717C15.0146 8.57253 15.0146 8.67339 15.0146 8.77422C15.0146 11.8497 12.7541 15.3934 8.62268 15.3934C7.34985 15.3934 6.16746 15.0117 5.17285 14.3491C5.3537 14.3707 5.52756 14.3779 5.71536 14.3779C6.76559 14.3779 7.73239 14.0105 8.50443 13.3839C7.51678 13.3623 6.6891 12.6925 6.40393 11.7705C6.54304 11.7921 6.68214 11.8065 6.82822 11.8065C7.02991 11.8065 7.23163 11.7777 7.41941 11.7273C6.39003 11.5112 5.61797 10.5749 5.61797 9.44406V9.41526C5.91704 9.58813 6.26483 9.69616 6.63343 9.71055C6.02832 9.29279 5.63189 8.57974 5.63189 7.77304C5.63189 7.34089 5.74315 6.94474 5.93791 6.59902C7.04381 8.01073 8.70613 8.93265 10.5701 9.0335C10.5354 8.86064 10.5145 8.68059 10.5145 8.50052C10.5145 7.21844 11.5161 6.17407 12.761 6.17407C13.4079 6.17407 13.9921 6.45497 14.4025 6.90874C14.9102 6.80791 15.3971 6.61343 15.8283 6.34694C15.6614 6.88715 15.3067 7.34091 14.8407 7.629C15.2928 7.5786 15.731 7.44893 16.1344 7.26888C15.8284 7.72983 15.4458 8.14036 15.0076 8.4717Z" fill="white"/>
</mask>
<g mask="url(#mask0)">
</g>
</svg>
