<svg width="163" height="12" viewBox="0 0 163 12" fill="none" xmlns="http://www.w3.org/2000/svg">
<path d="M1.9335 9V6.156H3.9735C5.7015 6.156 6.6615 4.968 6.6615 3.576C6.6615 2.172 5.7135 0.995999 3.9735 0.995999H0.2295V9H1.9335ZM3.7455 4.656H1.9335V2.496H3.7455C4.4175 2.496 4.9215 2.904 4.9215 3.576C4.9215 4.236 4.4175 4.656 3.7455 4.656ZM9.20578 9V5.172C9.45778 4.8 10.1298 4.512 10.6338 4.512C10.8018 4.512 10.9458 4.524 11.0538 4.548V3.06C10.3338 3.06 9.61378 3.48 9.20578 3.996V3.204H7.68178V9H9.20578ZM12.762 2.58C13.266 2.58 13.674 2.172 13.674 1.668C13.674 1.164 13.266 0.767999 12.762 0.767999C12.27 0.767999 11.85 1.164 11.85 1.668C11.85 2.172 12.27 2.58 12.762 2.58ZM13.53 9V3.204H12.006V9H13.53ZM18.1852 9L20.5132 3.204H18.8692L17.3572 7.236L15.8452 3.204H14.2132L16.5412 9H18.1852ZM26.1975 9V5.256C26.1975 3.588 24.9855 3.06 23.6655 3.06C22.7535 3.06 21.8415 3.348 21.1335 3.972L21.7095 4.992C22.2015 4.536 22.7775 4.308 23.4015 4.308C24.1695 4.308 24.6735 4.692 24.6735 5.28V6.06C24.2895 5.604 23.6055 5.352 22.8375 5.352C21.9135 5.352 20.8215 5.868 20.8215 7.224C20.8215 8.52 21.9135 9.144 22.8375 9.144C23.5935 9.144 24.2775 8.868 24.6735 8.4V9H26.1975ZM23.4495 8.112C22.8495 8.112 22.3575 7.8 22.3575 7.26C22.3575 6.696 22.8495 6.384 23.4495 6.384C23.9415 6.384 24.4215 6.552 24.6735 6.888V7.608C24.4215 7.944 23.9415 8.112 23.4495 8.112ZM30.4091 9.144C31.5971 9.144 32.3171 8.628 32.7011 8.088L31.7051 7.164C31.4291 7.548 31.0091 7.788 30.4811 7.788C29.5571 7.788 28.9091 7.104 28.9091 6.096C28.9091 5.088 29.5571 4.416 30.4811 4.416C31.0091 4.416 31.4291 4.632 31.7051 5.04L32.7011 4.104C32.3171 3.576 31.5971 3.06 30.4091 3.06C28.6211 3.06 27.3371 4.32 27.3371 6.096C27.3371 7.884 28.6211 9.144 30.4091 9.144ZM33.4934 11.268C33.6854 11.316 34.0694 11.352 34.2494 11.352C35.2454 11.328 36.0134 11.04 36.4454 9.948L39.1694 3.204H37.5254L36.0134 7.236L34.5014 3.204H32.8694L35.2214 9.084L35.0054 9.576C34.8614 9.888 34.5974 9.996 34.2014 9.996C34.0574 9.996 33.8534 9.96 33.7214 9.9L33.4934 11.268ZM44.6601 9V6.156H46.7001C48.4281 6.156 49.3881 4.968 49.3881 3.576C49.3881 2.172 48.4401 0.995999 46.7001 0.995999H42.9561V9H44.6601ZM46.4721 4.656H44.6601V2.496H46.4721C47.1441 2.496 47.6481 2.904 47.6481 3.576C47.6481 4.236 47.1441 4.656 46.4721 4.656ZM52.8971 9.144C54.8171 9.144 55.9691 7.752 55.9691 6.096C55.9691 4.452 54.8171 3.06 52.8971 3.06C50.9891 3.06 49.8371 4.452 49.8371 6.096C49.8371 7.752 50.9891 9.144 52.8971 9.144ZM52.8971 7.788C51.9491 7.788 51.4211 7.008 51.4211 6.096C51.4211 5.196 51.9491 4.416 52.8971 4.416C53.8451 4.416 54.3851 5.196 54.3851 6.096C54.3851 7.008 53.8451 7.788 52.8971 7.788ZM58.6238 9V0.995999H57.0998V9H58.6238ZM60.8909 2.58C61.3949 2.58 61.8029 2.172 61.8029 1.668C61.8029 1.164 61.3949 0.767999 60.8909 0.767999C60.3989 0.767999 59.9789 1.164 59.9789 1.668C59.9789 2.172 60.3989 2.58 60.8909 2.58ZM61.6589 9V3.204H60.1349V9H61.6589ZM65.8701 9.144C67.0581 9.144 67.7781 8.628 68.1621 8.088L67.1661 7.164C66.8901 7.548 66.4701 7.788 65.9421 7.788C65.0181 7.788 64.3701 7.104 64.3701 6.096C64.3701 5.088 65.0181 4.416 65.9421 4.416C66.4701 4.416 66.8901 4.632 67.1661 5.04L68.1621 4.104C67.7781 3.576 67.0581 3.06 65.8701 3.06C64.0821 3.06 62.7981 4.32 62.7981 6.096C62.7981 7.884 64.0821 9.144 65.8701 9.144ZM68.9543 11.268C69.1463 11.316 69.5303 11.352 69.7103 11.352C70.7063 11.328 71.4743 11.04 71.9063 9.948L74.6303 3.204H72.9863L71.4743 7.236L69.9623 3.204H68.3303L70.6823 9.084L70.4663 9.576C70.3223 9.888 70.0583 9.996 69.6623 9.996C69.5183 9.996 69.3143 9.96 69.1823 9.9L68.9543 11.268ZM108.894 9.144C111.054 9.144 112.098 8.04 112.098 6.576C112.098 3.588 107.502 4.44 107.502 3.168C107.502 2.688 107.91 2.364 108.642 2.364C109.458 2.364 110.322 2.64 110.97 3.24L111.918 1.992C111.126 1.26 110.07 0.875999 108.798 0.875999C106.914 0.875999 105.762 1.98 105.762 3.312C105.762 6.324 110.37 5.352 110.37 6.768C110.37 7.224 109.914 7.656 108.978 7.656C107.874 7.656 106.998 7.164 106.434 6.576L105.51 7.872C106.254 8.628 107.358 9.144 108.894 9.144ZM113.965 2.58C114.469 2.58 114.877 2.172 114.877 1.668C114.877 1.164 114.469 0.767999 113.965 0.767999C113.473 0.767999 113.053 1.164 113.053 1.668C113.053 2.172 113.473 2.58 113.965 2.58ZM114.733 9V3.204H113.209V9H114.733ZM118.188 9.144C118.824 9.144 119.232 8.976 119.46 8.772L119.136 7.62C119.052 7.704 118.836 7.788 118.608 7.788C118.272 7.788 118.08 7.512 118.08 7.152V4.536H119.256V3.204H118.08V1.62H116.544V3.204H115.584V4.536H116.544V7.56C116.544 8.592 117.12 9.144 118.188 9.144ZM123.023 9.144C123.923 9.144 124.835 8.868 125.411 8.34L124.739 7.356C124.367 7.716 123.683 7.932 123.191 7.932C122.207 7.932 121.619 7.32 121.523 6.588H125.831V6.252C125.831 4.356 124.655 3.06 122.927 3.06C121.163 3.06 119.927 4.416 119.927 6.096C119.927 7.956 121.259 9.144 123.023 9.144ZM124.355 5.556H121.499C121.571 4.98 121.979 4.272 122.927 4.272C123.935 4.272 124.319 5.004 124.355 5.556Z" fill="white"/>
<path d="M133.914 9.144C135.678 9.144 136.686 8.172 137.262 7.176L135.798 6.468C135.462 7.128 134.742 7.632 133.914 7.632C132.462 7.632 131.406 6.516 131.406 5.004C131.406 3.492 132.462 2.376 133.914 2.376C134.742 2.376 135.462 2.892 135.798 3.54L137.262 2.82C136.698 1.824 135.678 0.864 133.914 0.864C131.514 0.864 129.654 2.544 129.654 5.004C129.654 7.464 131.514 9.144 133.914 9.144ZM139.764 9V5.172C140.016 4.8 140.688 4.512 141.192 4.512C141.36 4.512 141.504 4.524 141.612 4.548V3.06C140.892 3.06 140.172 3.48 139.764 3.996V3.204H138.24V9H139.764ZM145.289 9.144C146.189 9.144 147.101 8.868 147.677 8.34L147.005 7.356C146.633 7.716 145.949 7.932 145.457 7.932C144.473 7.932 143.885 7.32 143.789 6.588H148.097V6.252C148.097 4.356 146.921 3.06 145.193 3.06C143.429 3.06 142.193 4.416 142.193 6.096C142.193 7.956 143.525 9.144 145.289 9.144ZM146.621 5.556H143.765C143.837 4.98 144.245 4.272 145.193 4.272C146.201 4.272 146.585 5.004 146.621 5.556ZM154.717 9V0.995999H153.181V3.948C152.725 3.36 152.077 3.06 151.393 3.06C149.917 3.06 148.825 4.212 148.825 6.108C148.825 8.04 149.929 9.144 151.393 9.144C152.089 9.144 152.725 8.832 153.181 8.256V9H154.717ZM151.861 7.788C150.997 7.788 150.397 7.104 150.397 6.108C150.397 5.1 150.997 4.416 151.861 4.416C152.377 4.416 152.929 4.692 153.181 5.076V7.128C152.929 7.512 152.377 7.788 151.861 7.788ZM156.985 2.58C157.489 2.58 157.897 2.172 157.897 1.668C157.897 1.164 157.489 0.767999 156.985 0.767999C156.493 0.767999 156.073 1.164 156.073 1.668C156.073 2.172 156.493 2.58 156.985 2.58ZM157.753 9V3.204H156.229V9H157.753ZM161.208 9.144C161.844 9.144 162.252 8.976 162.48 8.772L162.156 7.62C162.072 7.704 161.856 7.788 161.628 7.788C161.292 7.788 161.1 7.512 161.1 7.152V4.536H162.276V3.204H161.1V1.62H159.564V3.204H158.604V4.536H159.564V7.56C159.564 8.592 160.14 9.144 161.208 9.144Z" fill="#FFC000"/>
<path d="M129.246 10.596H162.564V10.836H129.246V10.596Z" fill="#FFC000"/>
</svg>
