<svg width="21" height="21" viewBox="0 0 21 21" fill="none" xmlns="http://www.w3.org/2000/svg">
<path d="M10.1394 21C15.7393 21 20.2788 16.299 20.2788 10.5C20.2788 4.70101 15.7393 0 10.1394 0C4.53957 0 0 4.70101 0 10.5C0 16.299 4.53957 21 10.1394 21Z" fill="#272EAE"/>
<path d="M9.15098 16.4595V11.3824H7.39941V9.36491H9.15098V7.77528C9.15098 6.04819 10.238 5.10815 11.8251 5.10815C12.5856 5.10815 13.2387 5.16358 13.4283 5.18797V6.99266H12.3275C11.4643 6.99266 11.2976 7.39173 11.2976 7.97481V9.36491H13.2456L12.9784 11.3824H11.2976V16.4595" fill="white"/>
<mask id="mask0" mask-type="alpha" maskUnits="userSpaceOnUse" x="7" y="5" width="7" height="12">
<path d="M9.15098 16.4595V11.3824H7.39941V9.36491H9.15098V7.77528C9.15098 6.04819 10.238 5.10815 11.8251 5.10815C12.5856 5.10815 13.2387 5.16358 13.4283 5.18797V6.99266H12.3275C11.4643 6.99266 11.2976 7.39173 11.2976 7.97481V9.36491H13.2456L12.9784 11.3824H11.2976V16.4595" fill="white"/>
</mask>
<g mask="url(#mask0)">
</g>
</svg>
