<svg width="21" height="21" viewBox="0 0 21 21" fill="none" xmlns="http://www.w3.org/2000/svg">
<path d="M10.8611 21C16.461 21 21.0005 16.299 21.0005 10.5C21.0005 4.70101 16.461 0 10.8611 0C5.26125 0 0.72168 4.70101 0.72168 10.5C0.72168 16.299 5.26125 21 10.8611 21Z" fill="#F53E6A"/>
<path fill-rule="evenodd" clip-rule="evenodd" d="M11.1357 4.71802C8.20799 4.71802 5.82617 7.18454 5.82617 10.2163C5.82617 13.2481 8.20799 15.7146 11.1357 15.7146C14.0633 15.7146 16.4452 13.2481 16.4452 10.2163C16.4452 7.18454 14.0633 4.71802 11.1357 4.71802ZM14.6462 7.25354C15.2778 8.0527 15.6603 9.07058 15.6703 10.1791C15.5208 10.1463 14.0214 9.83138 12.5124 10.0279C12.3892 9.71661 12.273 9.44276 12.1138 9.1053C13.7906 8.39635 14.5506 7.38747 14.6462 7.25354ZM11.7653 8.40699C13.3779 7.78104 14.0606 6.83083 14.1421 6.71051C13.0268 5.68581 11.5113 5.29864 10.0731 5.65765C10.1984 5.83147 11.0221 6.99303 11.7653 8.40699ZM9.20753 5.9732C9.3271 6.143 10.1375 7.30601 10.8889 8.6893C8.76757 9.27267 6.89912 9.26427 6.69629 9.2615C6.99037 7.80416 7.93875 6.59293 9.20753 5.9732ZM6.60288 10.0799C6.60149 10.1276 6.60057 10.1754 6.60057 10.2234C6.60057 11.4297 7.04211 12.531 7.76645 13.3636C8.50158 12.0604 9.99156 10.6869 11.6315 10.2086C11.5177 9.94176 11.3936 9.67467 11.2638 9.41155C8.999 10.1134 6.8013 10.0841 6.60288 10.0799ZM8.35187 13.9286C8.82559 12.9257 10.1112 11.6312 11.9396 10.9853C12.5763 12.6987 12.8396 14.1347 12.9071 14.5467C11.4488 15.19 9.69536 15.0135 8.35187 13.9286ZM12.7886 10.7683C13.3818 12.4562 13.6232 13.8311 13.6697 14.1168C14.6871 13.4043 15.4114 12.2758 15.6135 10.969C15.4584 10.9183 14.2098 10.5327 12.7886 10.7683Z" fill="white"/>
<mask id="mask0" mask-type="alpha" maskUnits="userSpaceOnUse" x="5" y="4" width="12" height="12">
<path fill-rule="evenodd" clip-rule="evenodd" d="M11.1357 4.71802C8.20799 4.71802 5.82617 7.18454 5.82617 10.2163C5.82617 13.2481 8.20799 15.7146 11.1357 15.7146C14.0633 15.7146 16.4452 13.2481 16.4452 10.2163C16.4452 7.18454 14.0633 4.71802 11.1357 4.71802ZM14.6462 7.25354C15.2778 8.0527 15.6603 9.07058 15.6703 10.1791C15.5208 10.1463 14.0214 9.83138 12.5124 10.0279C12.3892 9.71661 12.273 9.44276 12.1138 9.1053C13.7906 8.39635 14.5506 7.38747 14.6462 7.25354ZM11.7653 8.40699C13.3779 7.78104 14.0606 6.83083 14.1421 6.71051C13.0268 5.68581 11.5113 5.29864 10.0731 5.65765C10.1984 5.83147 11.0221 6.99303 11.7653 8.40699ZM9.20753 5.9732C9.3271 6.143 10.1375 7.30601 10.8889 8.6893C8.76757 9.27267 6.89912 9.26427 6.69629 9.2615C6.99037 7.80416 7.93875 6.59293 9.20753 5.9732ZM6.60288 10.0799C6.60149 10.1276 6.60057 10.1754 6.60057 10.2234C6.60057 11.4297 7.04211 12.531 7.76645 13.3636C8.50158 12.0604 9.99156 10.6869 11.6315 10.2086C11.5177 9.94176 11.3936 9.67467 11.2638 9.41155C8.999 10.1134 6.8013 10.0841 6.60288 10.0799ZM8.35187 13.9286C8.82559 12.9257 10.1112 11.6312 11.9396 10.9853C12.5763 12.6987 12.8396 14.1347 12.9071 14.5467C11.4488 15.19 9.69536 15.0135 8.35187 13.9286ZM12.7886 10.7683C13.3818 12.4562 13.6232 13.8311 13.6697 14.1168C14.6871 13.4043 15.4114 12.2758 15.6135 10.969C15.4584 10.9183 14.2098 10.5327 12.7886 10.7683Z" fill="white"/>
</mask>
<g mask="url(#mask0)">
</g>
</svg>
