<svg width="160" height="39" viewBox="0 0 160 39" fill="none" xmlns="http://www.w3.org/2000/svg">
<path fill-rule="evenodd" clip-rule="evenodd" d="M129.139 24.444C127.151 23.1881 127.689 20.43 129.317 19.1606C128.705 23.3254 133.86 21.5549 135.911 20.8266C135.986 20.7997 136.077 20.77 136.179 20.7371C136.899 20.5024 138.135 20.0999 138.017 19.327C137.674 17.0942 135.019 17.451 132.614 17.7742C131.302 17.9504 130.065 18.1166 129.317 17.8481C122.319 15.3364 125.742 6.36424 129.355 2.54849C132.683 -0.966769 138.772 -0.0441913 142.985 0.658567C144.433 0.900249 146.804 1.66159 147.999 2.30388C150.218 3.49701 150.953 4.95087 151.1 6.55587C151.195 7.58779 150.36 8.79375 149.738 9.69162C149.657 9.80895 149.579 9.92101 149.507 10.0267C148.358 11.7272 146.939 13.1312 145.517 14.5377C144.547 15.4978 143.575 16.459 142.687 17.5165C142.779 17.4447 142.87 17.3729 142.961 17.3012C146.153 14.7894 149.276 12.3322 151.598 8.93068C153.415 6.26871 154.355 4.48815 151.662 2.3543C152.313 2.02969 152.944 1.74142 153.677 1.66159C158.722 1.11228 156.128 7.51018 154.847 9.66139C154.761 9.80541 154.654 9.96045 154.541 10.1234C154.137 10.7065 153.662 11.3911 153.86 12.0362C154.205 13.1616 155.632 14.0072 157.007 14.8217C158.586 15.7572 160.096 16.6517 159.819 17.8824C159.499 19.3051 158.11 20.5013 156.989 21.4667C156.857 21.5799 156.729 21.6901 156.607 21.797C154.725 23.4471 152.739 24.775 150.727 26.1211C149.76 26.7679 148.787 27.4189 147.816 28.1118C148.865 27.7524 149.881 27.2977 150.895 26.8441C151.935 26.3783 152.974 25.9136 154.043 25.5543C154.014 27.5903 153.039 28.7259 151.96 29.9818C151.492 30.5261 151.006 31.0929 150.568 31.7653C150.134 32.4322 149.804 33.2289 149.474 34.0258C148.596 36.1441 147.718 38.2637 144.885 37.9497C140.24 37.4346 140.315 31.48 140.359 27.9596C140.363 27.6904 140.366 27.4355 140.367 27.1984C140.368 26.8592 140.169 26.4531 139.969 26.0462C139.706 25.5105 139.443 24.9734 139.636 24.5859C139.965 23.9243 141.193 23.3315 142.255 22.8187C142.793 22.559 143.289 22.3198 143.603 22.1026C145.958 20.4766 147.707 18.4586 149.464 16.2378C148.806 16.7118 148.151 17.1946 147.496 17.6779C143.231 20.8218 138.936 23.9874 133.529 24.9162C132.191 25.1462 130.326 25.1933 129.139 24.444ZM126.462 11.915C126.617 7.13551 129.987 -1.53541 142.23 2.01683C137.654 1.27678 128.095 2.22034 126.462 11.915Z" fill="url(#paint0_linear)"/>
<path d="M6.53871 23.3196C7.33743 23.3196 7.99401 23.4347 8.50844 23.6648C9.02287 23.8814 9.58469 24.2063 10.1939 24.6395C10.3699 24.7749 10.5052 24.8426 10.6 24.8426C10.8572 24.8426 11.0265 24.4297 11.1077 23.6039H11.5747C11.5206 24.4838 11.4935 26.0407 11.4935 28.2744H11.0265C10.9046 27.5569 10.776 26.968 10.6406 26.5077C10.5052 26.0339 10.2954 25.621 10.0111 25.269C9.61853 24.7817 9.1041 24.3958 8.46783 24.1115C7.84509 23.8272 7.18851 23.6851 6.49809 23.6851C5.6046 23.6851 4.81942 23.9762 4.14253 24.5583C3.46565 25.1404 2.94445 25.973 2.57893 27.056C2.21341 28.1255 2.03065 29.3777 2.03065 30.8127C2.03065 33.2495 2.41648 35.0365 3.18813 36.1736C3.97331 37.2972 5.19847 37.8591 6.86361 37.8591C7.67587 37.8591 8.37983 37.6492 8.97549 37.2296C9.21917 37.0671 9.37485 36.9114 9.44254 36.7625C9.52377 36.6001 9.56438 36.3835 9.56438 36.1127V34.1633C9.56438 33.5947 9.51023 33.1818 9.40193 32.9246C9.29362 32.6674 9.1041 32.4914 8.83334 32.3966C8.56259 32.3018 8.12261 32.2409 7.51342 32.2138V31.8077C8.21738 31.8483 9.17179 31.8686 10.3766 31.8686C11.2972 31.8686 12.0012 31.8483 12.4885 31.8077V32.2138C12.1772 32.2409 11.947 32.2951 11.7981 32.3763C11.6627 32.4575 11.568 32.6132 11.5138 32.8433C11.4732 33.0735 11.4529 33.4458 11.4529 33.9602V37.9809H11.0468C11.0332 37.7101 10.9791 37.4529 10.8843 37.2093C10.7895 36.952 10.6609 36.8234 10.4985 36.8234C10.4173 36.8234 10.336 36.8437 10.2548 36.8843C10.1736 36.925 10.0314 37.0197 9.82836 37.1686C9.35454 37.5342 8.86042 37.8049 8.34599 37.9809C7.84509 38.1704 7.28328 38.2652 6.66054 38.2652C5.26616 38.2652 4.06808 37.9809 3.06629 37.4123C2.07804 36.8302 1.31992 35.9976 0.791955 34.9146C0.263985 33.8316 0 32.5387 0 31.0361C0 29.4928 0.277523 28.139 0.832568 26.9748C1.40115 25.797 2.17957 24.8967 3.16782 24.274C4.15607 23.6377 5.2797 23.3196 6.53871 23.3196Z" fill="#5C5C5C"/>
<path d="M20.7152 23.3196C22.0013 23.3196 23.1249 23.6106 24.0861 24.1928C25.0608 24.7749 25.8121 25.621 26.3401 26.7311C26.8816 27.8276 27.1524 29.1408 27.1524 30.6705C27.1524 32.1597 26.8749 33.4796 26.3198 34.6303C25.7783 35.781 25.0134 36.6745 24.0252 37.3108C23.0505 37.9471 21.9404 38.2652 20.6949 38.2652C19.4088 38.2652 18.2784 37.9741 17.3037 37.392C16.3425 36.8099 15.5912 35.9706 15.0497 34.874C14.5217 33.7639 14.2577 32.444 14.2577 30.9142C14.2577 29.4251 14.5285 28.1052 15.07 26.9545C15.625 25.8037 16.3899 24.9103 17.3646 24.274C18.3529 23.6377 19.4697 23.3196 20.7152 23.3196ZM20.634 23.6851C19.7676 23.6851 19.0027 23.9897 18.3393 24.5989C17.6895 25.1946 17.1819 26.0339 16.8164 27.1169C16.4644 28.1999 16.2884 29.4386 16.2884 30.833C16.2884 32.2409 16.4847 33.4796 16.8773 34.5491C17.2834 35.6186 17.8249 36.4444 18.5018 37.0265C19.1787 37.6086 19.9368 37.8997 20.7761 37.8997C21.6425 37.8997 22.4007 37.6018 23.0505 37.0062C23.7138 36.397 24.2215 35.5509 24.5735 34.4679C24.939 33.3849 25.1217 32.1462 25.1217 30.7518C25.1217 29.3439 24.9187 28.1052 24.5125 27.0357C24.1199 25.9662 23.5852 25.1404 22.9083 24.5583C22.2314 23.9762 21.4733 23.6851 20.634 23.6851Z" fill="#5C5C5C"/>
<path d="M35.8682 23.3196C36.6669 23.3196 37.3235 23.4347 37.8379 23.6648C38.3523 23.8814 38.9141 24.2063 39.5233 24.6395C39.6993 24.7749 39.8347 24.8426 39.9295 24.8426C40.1867 24.8426 40.3559 24.4297 40.4371 23.6039H40.9042C40.85 24.4838 40.823 26.0407 40.823 28.2744H40.3559C40.2341 27.5569 40.1055 26.968 39.9701 26.5077C39.8347 26.0339 39.6249 25.621 39.3406 25.269C38.948 24.7817 38.4336 24.3958 37.7973 24.1115C37.1746 23.8272 36.518 23.6851 35.8276 23.6851C34.9341 23.6851 34.1489 23.9762 33.472 24.5583C32.7951 25.1404 32.2739 25.973 31.9084 27.056C31.5429 28.1255 31.3601 29.3777 31.3601 30.8127C31.3601 33.2495 31.7459 35.0365 32.5176 36.1736C33.3028 37.2972 34.5279 37.8591 36.1931 37.8591C37.0053 37.8591 37.7093 37.6492 38.305 37.2296C38.5486 37.0671 38.7043 36.9114 38.772 36.7625C38.8532 36.6001 38.8938 36.3835 38.8938 36.1127V34.1633C38.8938 33.5947 38.8397 33.1818 38.7314 32.9246C38.6231 32.6674 38.4336 32.4914 38.1628 32.3966C37.8921 32.3018 37.4521 32.2409 36.8429 32.2138V31.8077C37.5468 31.8483 38.5012 31.8686 39.7061 31.8686C40.6267 31.8686 41.3306 31.8483 41.818 31.8077V32.2138C41.5066 32.2409 41.2765 32.2951 41.1276 32.3763C40.9922 32.4575 40.8974 32.6132 40.8433 32.8433C40.8027 33.0735 40.7823 33.4458 40.7823 33.9602V37.9809H40.3762C40.3627 37.7101 40.3085 37.4529 40.2138 37.2093C40.119 36.952 39.9904 36.8234 39.8279 36.8234C39.7467 36.8234 39.6655 36.8437 39.5843 36.8843C39.503 36.925 39.3609 37.0197 39.1578 37.1686C38.684 37.5342 38.1899 37.8049 37.6754 37.9809C37.1746 38.1704 36.6127 38.2652 35.99 38.2652C34.5956 38.2652 33.3975 37.9809 32.3957 37.4123C31.4075 36.8302 30.6494 35.9976 30.1214 34.9146C29.5934 33.8316 29.3295 32.5387 29.3295 31.0361C29.3295 29.4928 29.607 28.139 30.162 26.9748C30.7306 25.797 31.509 24.8967 32.4973 24.274C33.4855 23.6377 34.6092 23.3196 35.8682 23.3196Z" fill="#5C5C5C"/>
<path d="M53.7608 35.3817C53.7608 36.1533 53.8081 37.0197 53.9029 37.9809C52.9823 37.9403 51.4323 37.92 49.2527 37.92C46.6535 37.92 44.6905 37.9403 43.3638 37.9809V37.5748C43.8512 37.5477 44.2032 37.4935 44.4198 37.4123C44.6499 37.3311 44.8056 37.1754 44.8868 36.9453C44.968 36.7151 45.0086 36.3428 45.0086 35.8284V25.7564C45.0086 25.2419 44.968 24.8696 44.8868 24.6395C44.8056 24.4094 44.6499 24.2537 44.4198 24.1725C44.2032 24.0912 43.8512 24.0371 43.3638 24.01V23.6039C44.6905 23.6445 46.6535 23.6648 49.2527 23.6648C51.2428 23.6648 52.6574 23.6445 53.4968 23.6039C53.402 24.4974 53.3546 25.2961 53.3546 26C53.3546 26.528 53.3749 26.9477 53.4156 27.259H52.9485C52.8537 26.3791 52.7319 25.7293 52.583 25.3096C52.4341 24.8764 52.1836 24.565 51.8316 24.3755C51.4797 24.1725 50.9449 24.0709 50.2274 24.0709H48.542C48.0546 24.0709 47.6959 24.1115 47.4657 24.1928C47.2491 24.2605 47.1002 24.4094 47.019 24.6395C46.9378 24.8696 46.8972 25.2419 46.8972 25.7564V30.5487H48.2374C48.7112 30.5487 49.0767 30.4404 49.3339 30.2238C49.5912 29.9937 49.7604 29.7297 49.8416 29.4318C49.9364 29.1205 50.0108 28.7347 50.065 28.2744L50.1259 27.8682H50.5929C50.5523 28.4368 50.532 29.0731 50.532 29.7771V30.7518C50.532 31.4422 50.5726 32.4034 50.6539 33.6353H50.1868C50.1733 33.5405 50.1327 33.2156 50.065 32.6606C49.9973 32.092 49.8078 31.6656 49.4964 31.3813C49.1986 31.097 48.7789 30.9548 48.2374 30.9548H46.8972V35.8284C46.8972 36.3428 46.9378 36.7151 47.019 36.9453C47.1002 37.1754 47.2491 37.3311 47.4657 37.4123C47.6959 37.48 48.0546 37.5138 48.542 37.5138H50.0244C50.8637 37.5138 51.5 37.4055 51.9332 37.1889C52.3799 36.9588 52.7048 36.6001 52.9079 36.1127C53.111 35.6118 53.2599 34.8808 53.3546 33.9196H53.8217C53.7811 34.2851 53.7608 34.7725 53.7608 35.3817Z" fill="#5C5C5C"/>
<path d="M71.4558 36.2752C71.7807 37.1145 72.2477 37.5477 72.8569 37.5748V37.9809C72.3154 37.9403 71.5911 37.92 70.6841 37.92C69.5199 37.92 68.6535 37.9403 68.0849 37.9809V37.5748C68.5993 37.5477 68.9648 37.4868 69.1814 37.392C69.4116 37.2837 69.5266 37.0942 69.5266 36.8234C69.5266 36.5933 69.4454 36.2752 69.283 35.869L68.0443 32.5387H63.1301L62.2975 34.6912C62.0268 35.4223 61.8914 35.9773 61.8914 36.3564C61.8914 36.776 62.0335 37.0806 62.3178 37.2702C62.6156 37.4597 63.0624 37.5612 63.6581 37.5748V37.9809C62.8864 37.9403 62.108 37.92 61.3228 37.92C60.7136 37.92 60.2059 37.9403 59.7998 37.9809V37.5748C60.4767 37.4123 61.0114 36.8234 61.404 35.8081L66.1761 23.5023H66.501L71.4558 36.2752ZM67.8818 32.1326L65.6075 26.061L63.2925 32.1326H67.8818Z" fill="url(#paint1_linear)"/>
<path d="M83.3219 23.6039C83.2272 24.565 83.1798 25.4315 83.1798 26.2031C83.1798 26.88 83.2001 27.435 83.2407 27.8682H82.7736C82.6653 26.8258 82.53 26.0542 82.3675 25.5533C82.2051 25.0389 81.9208 24.6666 81.5146 24.4364C81.1085 24.1928 80.4858 24.0709 79.6464 24.0709H78.3671C77.8798 24.0709 77.521 24.1115 77.2909 24.1928C77.0743 24.2605 76.9254 24.4094 76.8441 24.6395C76.7629 24.8696 76.7223 25.2419 76.7223 25.7564V30.7518H78.2047C78.6785 30.7518 79.044 30.6435 79.3012 30.4269C79.5584 30.1967 79.7277 29.9327 79.8089 29.6349C79.9037 29.3235 79.9781 28.9377 80.0323 28.4774L80.0932 28.0713H80.5602C80.5196 28.6399 80.4993 29.2762 80.4993 29.9801V30.9548C80.4993 31.6453 80.5399 32.6064 80.6211 33.8384H80.1541C80.1406 33.7436 80.1 33.4187 80.0323 32.8637C79.9646 32.2951 79.775 31.8686 79.4637 31.5843C79.1658 31.3 78.7462 31.1579 78.2047 31.1579H76.7223V35.8284C76.7223 36.3428 76.7764 36.7151 76.8847 36.9453C76.993 37.1754 77.1826 37.3311 77.4533 37.4123C77.7241 37.4935 78.1641 37.5477 78.7733 37.5748V37.9809C78.0693 37.9403 77.0743 37.92 75.7882 37.92C74.624 37.92 73.7575 37.9403 73.189 37.9809V37.5748C73.6763 37.5477 74.0283 37.4935 74.2449 37.4123C74.475 37.3311 74.6307 37.1754 74.7119 36.9453C74.7932 36.7151 74.8338 36.3428 74.8338 35.8284V25.7564C74.8338 25.2419 74.7932 24.8696 74.7119 24.6395C74.6307 24.4094 74.475 24.2537 74.2449 24.1725C74.0283 24.0912 73.6763 24.0371 73.189 24.01V23.6039C74.5157 23.6445 76.4786 23.6648 79.0779 23.6648C81.0679 23.6648 82.4826 23.6445 83.3219 23.6039Z" fill="url(#paint2_linear)"/>
<path d="M97.2996 36.9656C96.9883 37.4259 96.6769 37.7575 96.3655 37.9606C96.0542 38.1637 95.6413 38.2652 95.1268 38.2652C94.5718 38.2652 94.1115 38.1027 93.746 37.7778C93.394 37.4529 93.13 36.8843 92.954 36.0721L92.5073 34.0414C92.3448 33.3375 92.1892 32.796 92.0402 32.4169C91.9049 32.0379 91.695 31.7333 91.4107 31.5031C91.1265 31.273 90.7271 31.1579 90.2127 31.1579H88.2835V35.8284C88.2835 36.3428 88.3242 36.7151 88.4054 36.9453C88.4866 37.1754 88.6355 37.3311 88.8521 37.4123C89.0823 37.4935 89.441 37.5477 89.9284 37.5748V37.9809C89.3056 37.9403 88.446 37.92 87.3494 37.92C86.1852 37.92 85.3188 37.9403 84.7502 37.9809V37.5748C85.2376 37.5477 85.5895 37.4935 85.8061 37.4123C86.0363 37.3311 86.192 37.1754 86.2732 36.9453C86.3544 36.7151 86.395 36.3428 86.395 35.8284V25.7564C86.395 25.2419 86.3544 24.8696 86.2732 24.6395C86.192 24.4094 86.0363 24.2537 85.8061 24.1725C85.5895 24.0912 85.2376 24.0371 84.7502 24.01V23.6039C85.3188 23.6445 86.1446 23.6648 87.2276 23.6648L89.4207 23.6445C89.6779 23.6309 89.969 23.6242 90.2939 23.6242C91.8643 23.6242 93.0691 23.9559 93.9085 24.6192C94.7613 25.269 95.1878 26.1151 95.1878 27.1575C95.1878 27.6855 95.0592 28.2202 94.8019 28.7617C94.5583 29.2897 94.1386 29.7703 93.5429 30.2035C92.9608 30.6232 92.1959 30.9075 91.2483 31.0564L91.492 31.097C92.3855 31.2459 93.0353 31.5167 93.4414 31.9092C93.8475 32.3018 94.1454 32.9246 94.3349 33.7774L94.8426 35.8487C94.9779 36.4714 95.1201 36.9047 95.269 37.1483C95.4179 37.392 95.621 37.5138 95.8782 37.5138C96.1083 37.5138 96.2979 37.4529 96.4468 37.3311C96.6092 37.2093 96.792 37.013 96.995 36.7422L97.2996 36.9656ZM89.7862 24.01C89.3666 24.01 89.0484 24.0574 88.8318 24.1521C88.6287 24.2469 88.4866 24.4161 88.4054 24.6598C88.3242 24.9035 88.2835 25.269 88.2835 25.7564V30.7518H89.6441C90.9843 30.7518 91.9049 30.4539 92.4058 29.8583C92.9067 29.2626 93.1571 28.4368 93.1571 27.3809C93.1571 26.2708 92.8931 25.4315 92.3652 24.8629C91.8372 24.2943 90.9775 24.01 89.7862 24.01Z" fill="url(#paint3_linear)"/>
<path d="M103.096 24.01C102.609 24.0371 102.25 24.0912 102.02 24.1725C101.803 24.2537 101.654 24.4094 101.573 24.6395C101.492 24.8696 101.451 25.2419 101.451 25.7564V35.8284C101.451 36.3428 101.492 36.7151 101.573 36.9453C101.654 37.1754 101.803 37.3311 102.02 37.4123C102.25 37.4935 102.609 37.5477 103.096 37.5748V37.9809C102.473 37.9403 101.614 37.92 100.517 37.92C99.3527 37.92 98.4863 37.9403 97.9177 37.9809V37.5748C98.4051 37.5477 98.7571 37.4935 98.9737 37.4123C99.2038 37.3311 99.3595 37.1754 99.4407 36.9453C99.5219 36.7151 99.5626 36.3428 99.5626 35.8284V25.7564C99.5626 25.2419 99.5219 24.8696 99.4407 24.6395C99.3595 24.4094 99.2038 24.2537 98.9737 24.1725C98.7571 24.0912 98.4051 24.0371 97.9177 24.01V23.6039C98.4863 23.6445 99.3527 23.6648 100.517 23.6648C101.6 23.6648 102.46 23.6445 103.096 23.6039V24.01Z" fill="url(#paint4_linear)"/>
<path d="M111.321 23.3196C112.133 23.3196 112.824 23.4347 113.392 23.6648C113.961 23.8949 114.516 24.2198 115.058 24.6395C115.206 24.7613 115.335 24.8223 115.443 24.8223C115.714 24.8223 115.89 24.4161 115.971 23.6039H116.438C116.384 24.4838 116.357 26.0407 116.357 28.2744H115.89C115.741 27.3944 115.606 26.7649 115.484 26.3859C115.362 25.9933 115.159 25.621 114.875 25.269C114.469 24.741 113.947 24.3484 113.311 24.0912C112.688 23.8205 112.012 23.6851 111.281 23.6851C110.401 23.6851 109.629 23.9762 108.966 24.5583C108.316 25.1404 107.808 25.973 107.443 27.056C107.077 28.1255 106.894 29.3845 106.894 30.833C106.894 32.3086 107.091 33.5744 107.483 34.6303C107.876 35.6863 108.417 36.4918 109.108 37.0468C109.812 37.5883 110.604 37.8591 111.484 37.8591C112.16 37.8591 112.817 37.7305 113.453 37.4732C114.09 37.216 114.59 36.8302 114.956 36.3158C115.227 35.9367 115.423 35.5306 115.545 35.0974C115.667 34.6642 115.782 34.0008 115.89 33.1073H116.357C116.357 35.4358 116.384 37.0603 116.438 37.9809H115.971C115.931 37.5477 115.87 37.2431 115.789 37.0671C115.721 36.8776 115.619 36.7828 115.484 36.7828C115.376 36.7828 115.234 36.837 115.058 36.9453C114.448 37.3785 113.866 37.7101 113.311 37.9403C112.756 38.1569 112.086 38.2652 111.301 38.2652C110.015 38.2652 108.884 37.9741 107.91 37.392C106.948 36.8099 106.197 35.9706 105.656 34.874C105.128 33.7639 104.864 32.444 104.864 30.9142C104.864 29.4251 105.134 28.1052 105.676 26.9545C106.231 25.8037 106.996 24.9103 107.971 24.274C108.959 23.6377 110.076 23.3196 111.321 23.3196Z" fill="url(#paint5_linear)"/>
<path d="M129.282 36.2752C129.607 37.1145 130.074 37.5477 130.683 37.5748V37.9809C130.141 37.9403 129.417 37.92 128.51 37.92C127.346 37.92 126.48 37.9403 125.911 37.9809V37.5748C126.425 37.5477 126.791 37.4868 127.007 37.392C127.238 37.2837 127.353 37.0942 127.353 36.8234C127.353 36.5933 127.271 36.2752 127.109 35.869L125.87 32.5387H120.956L120.124 34.6912C119.853 35.4223 119.717 35.9773 119.717 36.3564C119.717 36.776 119.86 37.0806 120.144 37.2702C120.442 37.4597 120.888 37.5612 121.484 37.5748V37.9809C120.712 37.9403 119.934 37.92 119.149 37.92C118.54 37.92 118.032 37.9403 117.626 37.9809V37.5748C118.303 37.4123 118.837 36.8234 119.23 35.8081L124.002 23.5023H124.327L129.282 36.2752ZM125.708 32.1326L123.434 26.061L121.119 32.1326H125.708Z" fill="url(#paint6_linear)"/>
<defs>
<linearGradient id="paint0_linear" x1="159.402" y1="0.918517" x2="120.026" y2="11.4903" gradientUnits="userSpaceOnUse">
<stop stop-color="#FFC000"/>
<stop offset="1" stop-color="#FF8A00"/>
</linearGradient>
<linearGradient id="paint1_linear" x1="129.761" y1="23.681" x2="100.482" y2="64.6099" gradientUnits="userSpaceOnUse">
<stop stop-color="#FFC000"/>
<stop offset="1" stop-color="#FF8A00"/>
</linearGradient>
<linearGradient id="paint2_linear" x1="129.761" y1="23.681" x2="100.482" y2="64.6099" gradientUnits="userSpaceOnUse">
<stop stop-color="#FFC000"/>
<stop offset="1" stop-color="#FF8A00"/>
</linearGradient>
<linearGradient id="paint3_linear" x1="129.761" y1="23.681" x2="100.482" y2="64.6099" gradientUnits="userSpaceOnUse">
<stop stop-color="#FFC000"/>
<stop offset="1" stop-color="#FF8A00"/>
</linearGradient>
<linearGradient id="paint4_linear" x1="129.761" y1="23.681" x2="100.482" y2="64.6099" gradientUnits="userSpaceOnUse">
<stop stop-color="#FFC000"/>
<stop offset="1" stop-color="#FF8A00"/>
</linearGradient>
<linearGradient id="paint5_linear" x1="129.761" y1="23.681" x2="100.482" y2="64.6099" gradientUnits="userSpaceOnUse">
<stop stop-color="#FFC000"/>
<stop offset="1" stop-color="#FF8A00"/>
</linearGradient>
<linearGradient id="paint6_linear" x1="129.761" y1="23.681" x2="100.482" y2="64.6099" gradientUnits="userSpaceOnUse">
<stop stop-color="#FFC000"/>
<stop offset="1" stop-color="#FF8A00"/>
</linearGradient>
</defs>
</svg>
